<svg viewBox="0 0 512 512" xmlns="http://www.w3.org/2000/svg"><path d="m512 256c0 141.386719-114.613281 256-256 256s-256-114.613281-256-256 114.613281-256 256-256 256 114.613281 256 256zm0 0" fill="#85e8e8"/><path d="m511.800781 109.59375c-36.28125 36.277344-122.789062 73.8125-152.996093 43.601562-30.207032-30.207031 7.324218-116.714843 43.601562-152.992187l-.203125-.203125c9.152344 9.148438-1.71875 20.019531 7.429687 29.167969 9.148438 9.148437 20.019532-1.722657 29.167969 7.429687 9.148438 9.148438-1.722656 20.019532 7.429688 29.167969 9.148437 9.148437 20.019531-1.722656 29.167969 7.429687 9.148437 9.148438-1.71875 20.019532 7.429687 29.171876 9.148437 9.148437 20.019531-1.722657 29.171875 7.429687zm0 0" fill="#aa3c6e"/><path d="m358.808594 160.699219c-1.9375 0-3.855469-.746094-5.304688-2.199219-2.554687-2.554688-2.925781-6.566406-.882812-9.546875l57.773437-84.207031c2.34375-3.414063 7.011719-4.285156 10.425781-1.941406 3.417969 2.34375 4.285157 7.011718 1.941407 10.429687l-34.980469 50.984375 50.984375-34.980469c3.417969-2.34375 8.085937-1.476562 10.429687 1.941407 2.339844 3.414062 1.472657 8.082031-1.941406 10.425781l-84.203125 57.777343c-1.289062.882813-2.769531 1.316407-4.242187 1.316407zm0 0" fill="#823264"/><path d="m245.40625 242.453125c-3.484375-3.488281-9.140625-3.488281-12.628906 0l-175.242188 175.242187c10.984375 13.464844 23.308594 25.785157 36.769532 36.769532l175.246093-175.242188c3.484375-3.488281 3.484375-9.140625 0-12.628906zm0 0" fill="#f2f2f2"/><path d="m245.40625 242.453125c-3.484375-3.488281-9.140625-3.488281-12.628906 0l-175.242188 175.242187c4.226563 5.179688 8.640625 10.199219 13.253906 15.03125l39.832032-39.832031 22.625 22.625 68.4375-68.433593-22.628906-22.628907 67.867187-67.863281c3.484375-3.488281 9.140625-3.488281 12.628906 0zm0 0" fill="#d1d1d1"/><path d="m146.152344 407.214844-43.488282-43.488282c-2.441406-2.441406-2.441406-6.398437 0-8.839843l38.382813-38.382813c2.441406-2.441406 6.398437-2.441406 8.839844 0l43.488281 43.488282c2.441406 2.441406 2.441406 6.398437 0 8.835937l-38.382812 38.386719c-2.441407 2.4375-6.398438 2.4375-8.839844 0zm0 0" fill="#aa3c6e"/><path d="m369.855469 140.019531c-58.589844-58.589843-153.582031-58.589843-212.175781 0-58.589844 58.589844-58.589844 153.585938 0 212.175781 58.59375 58.589844 153.585937 58.589844 212.175781 0 58.589843-58.589843 58.589843-153.585937 0-212.175781zm0 0" fill="#ab8ecd"/><path d="m193.375 359.992188-43.488281-43.488282c-2.441407-2.441406-6.398438-2.441406-8.839844 0l-17.175781 17.175782c6.480468 10.347656 14.214844 20.132812 23.203125 29.125 8.992187 8.992187 18.777343 16.722656 29.125 23.203124l17.175781-17.175781c2.441406-2.441406 2.441406-6.398437 0-8.839843zm0 0" fill="#823264"/><path d="m380.46875 129.410156c-9.636719-9.632812-20.183594-17.816406-31.359375-24.566406-3.183594 20.007812-.96875 37.6875 9.695313 48.351562 10.519531 10.523438 27.878906 12.820313 47.566406 9.820313-6.996094-12.011719-15.625-23.324219-25.902344-33.605469zm0 0" fill="#823264"/><path d="m369.855469 140.019531c-58.589844-58.589843-153.582031-58.589843-212.175781 0-58.589844 58.589844-58.589844 153.585938 0 212.175781 58.59375 58.589844 153.585937 58.589844 212.175781 0 58.589843-58.589843 58.589843-153.585937 0-212.175781zm0 0" fill="#bc5388"/><path d="m187.683594 352.195312c-58.589844-58.589843-58.589844-153.585937 0-212.175781 25.476562-25.476562 57.832031-39.871093 91.089844-43.191406-43.230469-4.316406-87.972657 10.074219-121.089844 43.191406-58.589844 58.589844-58.589844 153.585938 0 212.175781 33.117187 33.117188 77.859375 47.507813 121.089844 43.191407-33.257813-3.324219-65.613282-17.714844-91.089844-43.191407zm0 0" fill="#aa3c6e"/><g fill="#ffdc64"><path d="m297.328125 212.546875c-18.535156-18.53125-48.585937-18.53125-67.117187 0-18.535157 18.535156-18.535157 48.585937 0 67.117187 18.53125 18.535157 48.582031 18.535157 67.117187 0 18.535156-18.53125 18.535156-48.582031 0-67.117187zm0 0"/><path d="m216.628906 103.648438c1.167969 10.292968 5.6875 20.28125 13.582032 28.175781 18.535156 18.53125 48.585937 18.535156 67.121093 0 7.894531-7.894531 12.414063-17.882813 13.582031-28.175781-30.5625-10.085938-63.722656-10.085938-94.285156 0zm0 0"/><path d="m406.355469 292.871094c9.921875-30.332032 9.921875-63.195313 0-93.527344-9.34375 1.597656-18.300781 5.992188-25.515625 13.203125-18.53125 18.535156-18.53125 48.585937 0 67.117187 7.214844 7.214844 16.171875 11.609376 25.515625 13.207032zm0 0"/><path d="m146.875 215.160156c-7.457031-7.453125-16.777344-11.90625-26.464844-13.363281-9.390625 30.484375-8.855468 63.367187 1.617188 93.574219 9.101562-1.691406 17.804687-6.050782 24.847656-13.089844 18.535156-18.535156 18.535156-48.585938 0-67.121094zm0 0"/><path d="m310.726562 388.628906c-1.585937-9.382812-5.984374-18.382812-13.222656-25.625-18.535156-18.53125-48.585937-18.53125-67.121094 0-7.269531 7.269532-11.671874 16.3125-13.242187 25.734375 30.359375 9.894531 63.246094 9.859375 93.585937-.109375zm0 0"/></g><path d="m220.636719 377.148438c-1.664063 3.726562-2.835938 7.625-3.492188 11.589843 19.929688 6.496094 40.949219 8.710938 61.625 6.648438-20.152343-2.015625-39.972656-8.089844-58.132812-18.238281zm0 0" fill="#fac855"/><path d="m146.945312 215.234375c-.023437-.023437-.046874-.046875-.070312-.074219-7.457031-7.453125-16.777344-11.90625-26.460938-13.363281-9.394531 30.484375-8.859374 63.367187 1.613282 93.574219 9.101562-1.691406 17.808594-6.050782 24.847656-13.089844.347656-.347656.679688-.710938 1.015625-1.066406-5.1875-21.648438-5.5-44.222656-.945313-65.980469zm0 0" fill="#fac855"/><path d="m278.757812 96.828125c-20.847656-2.078125-42.046874.195313-62.128906 6.820313.464844 4.085937 1.464844 8.125 2.988282 12.003906 18.433593-10.492188 38.613281-16.769532 59.140624-18.824219zm0 0" fill="#eaca65"/></svg>